<?xml version="1.0" standalone="no"?>
<!DOCTYPE svg PUBLIC "-//W3C//DTD SVG 20010904//EN"
 "http://www.w3.org/TR/2001/REC-SVG-20010904/DTD/svg10.dtd">
<svg version="1.0" xmlns="http://www.w3.org/2000/svg"
 width="1280.000000pt" height="1280.000000pt" viewBox="0 0 1280.000000 1280.000000"
 preserveAspectRatio="xMidYMid meet">

<g transform="translate(0.000000,1280.000000) scale(0.100000,-0.100000)"
fill="#000000" stroke="none">
<path d="M1950 12740 c-199 -6 -221 -11 -273 -52 -22 -18 -45 -23 -135 -29
-115 -7 -152 -17 -173 -47 -21 -29 -53 -42 -104 -42 -42 0 -51 -4 -84 -40 -30
-33 -46 -42 -89 -49 -29 -4 -54 -10 -55 -12 -2 -2 -11 -16 -20 -32 -10 -15
-35 -34 -56 -43 -22 -8 -43 -26 -50 -40 -6 -14 -27 -32 -46 -40 -19 -8 -41
-27 -49 -42 -8 -15 -26 -33 -40 -40 -14 -6 -32 -24 -40 -40 -8 -16 -26 -37
-40 -46 -14 -9 -32 -32 -40 -50 -8 -19 -26 -42 -40 -51 -14 -9 -32 -36 -41
-60 -10 -24 -30 -56 -46 -71 -16 -15 -34 -46 -40 -68 -6 -23 -26 -57 -44 -77
-21 -24 -35 -52 -40 -80 -9 -53 -19 -75 -52 -111 -19 -20 -28 -45 -37 -110
-10 -67 -19 -92 -47 -131 -32 -45 -34 -56 -40 -147 -4 -76 -10 -105 -27 -131
-46 -72 -53 -98 -58 -232 -5 -136 -17 -210 -39 -262 -8 -16 -19 -52 -25 -80
-23 -101 -30 -1163 -28 -4052 l3 -2942 21 -28 c38 -51 90 -40 124 27 11 22 34
47 50 55 16 8 37 29 45 46 9 16 27 35 41 41 13 6 34 26 45 44 11 18 29 36 39
39 10 3 29 22 40 41 12 19 34 41 49 48 15 8 33 26 41 41 8 15 27 33 42 41 15
8 34 27 43 43 8 16 24 33 35 36 12 4 32 24 46 44 13 21 35 44 48 51 13 7 30
23 37 37 7 13 25 31 40 40 14 9 34 28 43 44 9 15 31 37 49 48 17 11 41 34 52
51 11 16 27 32 36 35 9 3 29 23 44 45 15 22 36 42 46 45 10 3 27 21 39 40 12
19 29 36 38 39 9 3 25 18 35 34 11 15 36 40 58 55 21 16 39 34 39 41 0 7 17
25 38 39 20 15 45 40 55 56 10 16 26 33 37 36 10 3 28 21 40 40 12 19 30 37
41 40 11 4 31 24 44 45 13 21 33 41 44 45 11 3 29 21 41 40 12 19 30 37 40 40
10 3 28 21 40 40 12 19 30 37 41 40 11 4 27 19 36 33 10 15 28 36 42 47 13 11
32 28 40 38 9 10 27 28 40 40 13 12 33 33 45 46 12 13 32 33 45 45 13 12 31
29 40 39 9 9 27 27 40 40 14 12 35 33 47 46 12 13 29 31 38 40 9 9 49 49 89
90 39 41 80 81 90 90 10 9 30 29 45 45 15 15 33 33 41 40 7 6 23 22 35 35 11
13 32 33 45 45 22 20 48 46 84 85 8 9 25 26 38 37 30 27 66 63 93 93 11 13 28
30 37 38 21 20 62 61 82 82 8 9 25 25 38 36 13 12 33 30 44 42 34 36 84 88 96
98 6 6 24 24 39 40 16 17 36 37 45 45 9 8 26 26 38 39 12 12 33 33 47 45 13
11 36 34 50 50 14 15 31 33 38 40 7 6 42 40 77 76 35 36 73 74 84 85 12 11 51
51 88 89 38 38 79 79 92 90 13 12 33 32 45 45 12 13 29 31 39 40 10 9 30 29
45 45 15 16 36 36 46 45 11 9 29 27 42 40 33 36 122 125 207 208 10 10 31 32
47 48 39 40 40 40 75 74 17 16 35 34 40 40 6 6 24 24 40 39 17 15 36 37 44 49
8 12 22 24 32 26 10 3 28 20 39 39 11 19 32 41 46 48 14 8 32 26 41 41 9 15
27 33 40 40 13 7 33 28 44 46 11 18 24 33 28 33 4 0 37 29 74 64 44 42 69 75
73 95 9 42 -24 130 -56 150 -35 22 -830 818 -830 830 0 6 -14 18 -30 26 -39
20 -58 58 -40 79 8 10 18 13 29 7 9 -4 1183 -8 2609 -9 l2593 -1 19 -23 c19
-22 19 -88 20 -2615 0 -1425 2 -2598 5 -2606 8 -20 -16 -36 -42 -27 -11 5 -29
22 -38 38 -10 16 -30 37 -46 46 -16 9 -36 30 -45 46 -10 15 -27 33 -40 39 -12
5 -30 23 -39 39 -10 16 -31 37 -46 46 -16 10 -35 30 -43 45 -8 15 -26 32 -40
39 -15 6 -32 23 -38 37 -6 14 -27 35 -45 46 -18 12 -40 33 -47 48 -8 15 -26
33 -40 41 -15 7 -36 28 -47 46 -11 18 -29 36 -39 39 -10 3 -28 20 -39 38 -11
18 -33 40 -50 50 -16 9 -33 26 -36 37 -3 10 -21 28 -39 39 -18 11 -38 32 -46
46 -7 14 -26 33 -41 43 -15 9 -38 33 -51 51 -17 26 -38 39 -81 54 -72 24 -98
17 -134 -32 -15 -22 -40 -47 -55 -56 -15 -8 -35 -29 -44 -45 -10 -16 -25 -31
-35 -33 -9 -3 -25 -18 -35 -33 -10 -16 -25 -33 -33 -38 -12 -7 -118 -113 -158
-157 -4 -5 -100 -101 -213 -213 -113 -112 -212 -212 -221 -222 -10 -10 -28
-28 -40 -40 -13 -11 -31 -28 -39 -36 -8 -9 -28 -30 -45 -46 -16 -17 -35 -36
-41 -42 -27 -28 -85 -86 -101 -100 -9 -8 -26 -26 -37 -39 -12 -13 -31 -33 -44
-45 -40 -36 -136 -131 -158 -157 -12 -13 -33 -33 -45 -45 -13 -11 -31 -28 -39
-37 -8 -10 -28 -31 -45 -47 -16 -16 -37 -36 -46 -46 -9 -9 -30 -30 -47 -46
-17 -16 -35 -34 -40 -40 -6 -5 -24 -23 -40 -40 -17 -16 -34 -34 -39 -39 -12
-14 -171 -172 -190 -189 -9 -8 -26 -26 -37 -39 -12 -12 -30 -30 -40 -40 -11
-9 -52 -50 -93 -91 -40 -41 -78 -79 -84 -85 -6 -5 -24 -23 -40 -40 -34 -35
-34 -36 -74 -75 -16 -16 -38 -37 -47 -47 -10 -10 -49 -49 -87 -87 -38 -37 -74
-73 -80 -80 -7 -6 -48 -46 -91 -89 -44 -44 -80 -82 -80 -86 0 -4 -13 -14 -28
-23 -15 -9 -34 -28 -41 -41 -7 -13 -26 -32 -42 -41 -17 -10 -35 -29 -41 -42
-6 -13 -26 -33 -45 -44 -18 -11 -38 -31 -43 -46 -6 -14 -18 -28 -28 -31 -9 -2
-26 -15 -37 -29 -11 -14 -31 -35 -44 -47 -50 -46 -231 -229 -238 -241 -5 -6
-22 -22 -40 -34 -17 -13 -34 -30 -37 -40 -3 -9 -22 -28 -41 -41 -20 -13 -43
-36 -52 -52 -9 -15 -27 -32 -40 -38 -13 -6 -29 -22 -35 -36 -6 -14 -26 -34
-43 -45 -17 -11 -38 -31 -45 -46 -8 -14 -27 -32 -43 -40 -15 -8 -33 -26 -39
-39 -6 -13 -28 -35 -49 -49 -20 -14 -40 -33 -43 -43 -3 -10 -20 -27 -37 -37
-16 -10 -35 -28 -40 -39 -6 -12 -25 -33 -44 -47 -19 -14 -40 -35 -46 -48 -7
-13 -25 -30 -39 -39 -15 -8 -35 -28 -45 -44 -11 -15 -30 -34 -43 -40 -12 -7
-31 -27 -42 -43 -10 -17 -32 -39 -47 -50 -15 -10 -37 -32 -48 -49 -11 -17 -23
-29 -26 -26 -10 6 -49 -32 -49 -46 0 -7 -12 -21 -27 -31 -14 -10 -32 -26 -39
-34 -13 -14 -42 -43 -92 -92 -13 -13 -26 -26 -30 -31 -4 -4 -36 -35 -72 -68
-137 -126 -134 -121 -96 -166 l24 -28 3389 -2 c3094 -2 3597 1 3698 22 11 2
56 16 100 30 66 22 108 28 243 34 160 8 164 9 230 43 58 31 80 36 167 43 90 6
104 10 137 37 41 32 86 48 136 48 42 0 90 20 125 53 19 18 44 28 80 33 41 6
58 14 83 41 19 21 49 39 82 48 30 9 56 24 62 35 6 11 33 31 60 45 27 14 54 34
60 45 6 11 29 32 51 46 22 13 45 35 50 48 6 13 22 29 35 35 13 5 35 28 48 50
14 22 35 42 46 46 13 4 30 26 41 53 11 26 33 61 49 77 15 17 34 50 40 75 7 25
27 61 45 81 26 29 34 49 43 109 9 61 16 78 43 106 32 33 33 36 40 155 7 113
10 126 40 173 30 49 32 58 40 191 4 77 8 2530 8 5451 1 4571 -1 5313 -13 5330
-14 19 -79 19 -5258 20 -2884 0 -5331 -3 -5438 -6z m10654 -46 c15 -14 16
-391 15 -4237 -1 -4254 -10 -6240 -27 -6332 -27 -139 -54 -334 -62 -449 -8
-119 -12 -134 -40 -180 -18 -27 -35 -74 -41 -105 -9 -56 -36 -121 -49 -121
-10 0 -40 -75 -40 -99 0 -11 -18 -38 -40 -60 -22 -22 -40 -47 -40 -55 0 -8
-18 -36 -40 -61 -22 -25 -45 -56 -52 -68 -13 -26 -136 -147 -148 -147 -5 0
-30 -19 -57 -41 -26 -23 -62 -48 -80 -55 -17 -8 -38 -23 -46 -34 -8 -12 -39
-30 -68 -41 -30 -11 -66 -32 -81 -46 -16 -15 -55 -33 -100 -45 -40 -10 -89
-30 -108 -43 -19 -13 -70 -30 -113 -39 -43 -9 -108 -29 -145 -45 -44 -19 -99
-33 -161 -40 -51 -7 -141 -25 -200 -42 -78 -22 -143 -33 -246 -40 -131 -10
-209 -18 -490 -55 -230 -29 -697 -34 -3682 -34 -2723 0 -3013 2 -3027 16 -12
12 -13 20 -6 35 6 10 15 19 21 19 6 0 3689 3678 3827 3823 4 4 21 20 37 36 17
16 35 34 40 40 6 6 136 136 290 289 154 153 288 290 298 305 19 30 51 35 82
13 11 -7 252 -246 535 -530 374 -375 521 -516 537 -516 12 0 27 9 33 20 10 18
11 1659 6 5005 -1 475 0 468 -73 478 -21 3 -1245 7 -2720 9 -2492 3 -2683 2
-2699 -14 -11 -11 -14 -25 -10 -41 3 -14 224 -242 526 -544 457 -457 520 -524
520 -550 0 -22 -7 -36 -26 -47 -14 -10 -110 -104 -215 -209 -104 -106 -193
-195 -197 -199 -515 -509 -4065 -4063 -4077 -4081 -17 -27 -48 -36 -60 -18
-11 18 -5 6318 6 6466 5 77 21 210 34 295 13 85 29 228 35 317 8 129 16 181
39 256 16 52 37 145 45 208 11 77 24 128 41 160 13 26 32 87 41 134 11 56 27
102 45 128 15 23 35 71 44 107 9 36 25 74 35 85 22 25 45 71 54 110 4 17 20
44 36 60 16 17 36 46 44 65 8 19 27 49 42 65 14 17 34 47 44 67 20 45 38 64
251 271 19 19 55 43 80 54 24 11 52 30 63 41 10 12 40 28 67 37 26 9 64 29 83
45 23 18 62 34 108 44 40 9 89 28 110 42 33 23 55 28 178 40 78 7 197 23 266
34 69 12 158 26 197 32 68 10 1992 16 8724 26 1608 2 1773 1 1787 -14z"/>
</g>
</svg>
